<svg width="189" height="126" viewBox="0 0 189 126" fill="none" xmlns="http://www.w3.org/2000/svg">
<path d="M108.824 5H25.9918C21.5615 5 17.6593 7.91504 16.4026 12.1634L5.41075 49.3216C5.13834 50.2425 5 51.1979 5 52.1582V91.1684C5 96.5982 9.40177 101 14.8316 101C20.2615 101 24.6633 96.5982 24.6633 91.1684V82.8308C24.6633 77.3079 29.1404 72.8308 34.6632 72.8308H42.1522C47.675 72.8308 52.1522 77.3079 52.1522 82.8308V91C52.1522 96.5228 56.6293 101 62.1522 101H115.506C121.028 101 125.506 96.5228 125.506 91V82.8308C125.506 77.3079 129.983 72.8308 135.506 72.8308H141.261C146.784 72.8308 151.261 77.3079 151.261 82.8308V91C151.261 96.5228 155.738 101 161.261 101H174C179.523 101 184 96.5228 184 91V60.7102C184 55.1873 179.523 50.7102 174 50.7102H139.117C134.878 50.7102 131.099 48.0377 129.688 44.0409L118.253 11.6693C116.841 7.67247 113.062 5 108.824 5Z" fill="#0038FF" stroke="black" stroke-width="10"/>
<ellipse cx="37.5" cy="105" rx="18.5" ry="21" fill="black"/>
<ellipse cx="139.5" cy="105" rx="18.5" ry="21" fill="black"/>
</svg>
