<svg width="145" height="113" viewBox="0 0 145 113" fill="none" xmlns="http://www.w3.org/2000/svg">
<rect x="7" y="42" width="32" height="13" fill="black"/>
<rect x="35.3507" y="44.8237" width="40.4285" height="15.3032" transform="rotate(22.2248 35.3507 44.8237)" fill="black"/>
<rect x="59.3124" y="59.3752" width="43.953" height="24.6202" transform="rotate(22.2248 59.3124 59.3752)" fill="black"/>
<rect x="16.8142" y="83.3651" width="51.7437" height="16.2609" transform="rotate(-6.13824 16.8142 83.3651)" fill="black"/>
<rect x="108.855" y="26" width="27.5575" height="8.51536" transform="rotate(52.2349 108.855 26)" fill="black"/>
<rect x="125.948" y="48.0446" width="13.1019" height="19.5416" transform="rotate(70.1741 125.948 48.0446)" fill="black"/>
<rect x="47" y="62" width="8.20471" height="21.0827" transform="rotate(17.4686 47 62)" fill="black"/>
<ellipse cx="89.8909" cy="59.9668" rx="30.027" ry="16" transform="rotate(16.9182 89.8909 59.9668)" fill="black"/>
<ellipse cx="123" cy="90" rx="22" ry="23" fill="black"/>
<ellipse cx="22" cy="89" rx="22" ry="23" fill="black"/>
<path d="M58.9704 35.5303C62.4571 34.267 66.2609 32.7456 69.8909 32.167C71.1397 31.9679 72.6422 31.8069 73.7732 31.2327C75.2113 30.5026 76.7044 30.2012 78.2784 30.0701C79.8523 29.9389 81.3686 29.5568 82.929 29.3434C84.9435 29.0679 87.0047 29.1773 89.0328 29.1773C90.3266 29.1773 91.6215 29.1625 92.9152 29.1773C95.857 29.2111 98.7005 30.1469 101.656 30.2984C103.601 30.3982 105.621 30.6598 107.552 31.0458" stroke="black" stroke-linecap="round"/>
<path d="M57.4756 36.0909C63.6243 36.0909 69.7843 35.9867 75.9324 36.0909C77.2064 36.1125 78.3174 36.4076 79.5137 36.8279C81.6227 37.5689 83.8253 37.8519 86.0536 37.9283C89.5534 38.0482 93.0668 37.9594 96.5692 37.9594C98.0724 37.9594 99.4956 37.8646 100.939 37.3988C102.362 36.9398 103.963 37.2833 105.413 36.9421C106.314 36.7303 107.325 36.6758 108.196 36.4438C108.979 36.2348 109.985 35.5285 110.728 35.1566" stroke="black" stroke-linecap="round"/>
<ellipse cx="59.5" cy="17" rx="11.5" ry="17" fill="#C4C4C4"/>
<circle cx="54" cy="12" r="2" fill="black"/>
<circle cx="65" cy="12" r="2" fill="black"/>
<path d="M58.7761 11.3086C58.7761 13.4838 58.4053 15.3039 57.8833 17.3917C57.6681 18.2527 56.917 18.982 56.5442 19.7896C56.4277 20.0421 56.0528 20.127 55.9733 20.3813C55.9395 20.4894 57.7309 20.4643 57.7795 20.4643C58.4231 20.4643 59.0667 20.4643 59.7103 20.4643" stroke="black" stroke-linecap="round"/>
<path d="M53.1705 21.3986C53.8987 21.8321 55.0397 22.3343 55.4127 23.1737C55.6834 23.7827 56.6825 24.9601 57.1982 25.3848C57.649 25.756 57.9736 26.201 58.4854 26.5267C59.1821 26.97 60.8528 26.6305 61.6619 26.6305C62.8832 26.6305 64.0715 26.5669 64.9526 25.6858C66.0289 24.6095 66.4588 23.3061 66.9975 21.9592" stroke="black" stroke-linecap="round"/>
<path d="M59.1498 33.9177C59.1498 36.8394 59.5235 39.6873 59.5235 42.6271C59.5235 44.7205 59.5235 46.814 59.5235 48.9074C59.5235 50.8061 59.7103 52.6894 59.7103 54.5649C59.7103 56.3205 60.0091 58.3773 59.5235 60.077" stroke="black" stroke-linecap="round"/>
</svg>
