<svg width="13668" height="258" viewBox="0 0 13668 258" fill="none" xmlns="http://www.w3.org/2000/svg">
<path d="M5 160.87C139.502 160.87 270.11 171.947 403.763 171.947C534.204 171.947 661.32 138.717 790.833 138.717C849.693 138.717 905.715 139.205 963.753 130.101C1040.32 118.092 1117.56 136.137 1193.9 116.563C1316.85 85.038 1466.36 105.486 1593.9 105.486C2351.42 105.486 3108.95 105.486 3866.47 105.486C4023.79 105.486 4183.97 114.384 4340.93 104.871C4394.57 101.62 4472.16 106.043 4524.31 91.9482C4553.95 83.9362 4568.08 61.1795 4601.23 61.1795C4630.92 61.1795 4660.8 62.2203 4690.46 61.1795C4766.98 58.4947 4839.56 27.9493 4916.92 27.9493C4975.07 27.9493 5027.41 5.7958 5083.07 5.7958C5229.91 5.7958 5376.85 4.00525 5523.68 5.7958C5594.86 6.66386 5650.5 34.4271 5715.68 39.6414C5797.95 46.2235 5889.65 81.5703 5969.21 103.025C6028.91 119.125 6107.42 138.717 6169.82 138.717C6252.13 138.717 6329.79 171.947 6411.66 171.947C6588.73 171.947 6744.79 249.484 6915.66 249.484C6994.76 249.484 7077.27 255.738 7156.27 248.869C7202.2 244.874 7246.15 230.384 7291.03 221.177C7336.73 211.802 7378.76 222.656 7420.88 198.408C7531.14 134.923 7651.19 111.659 7775.95 95.0251C7890.68 79.7281 8017.39 105.486 8132.87 105.486C8200.97 105.486 8269.07 105.486 8337.17 105.486C8678.7 105.486 9020.24 105.486 9361.77 105.486C9635.2 105.486 9908.63 105.486 10182.1 105.486C10332.8 105.486 10483.6 105.486 10634.4 105.486C10715.2 105.486 10799.7 98.7724 10879.9 110.409C10980.1 124.952 11082.8 160.87 11183.9 160.87C11413.1 160.87 11644.1 169.601 11873.1 160.255C12039.3 153.473 12226.9 122.836 12386.3 80.8715C12429.1 69.6113 12446.1 50.1028 12493.4 50.1028C12546.7 50.1028 12600.1 50.1028 12653.4 50.1028C12696.7 50.1028 12762.8 83.3699 12798.6 107.948C12827.5 127.723 12881.7 160.87 12916.2 160.87C12971.1 160.87 13013.9 193.352 13063.2 194.1C13113.3 194.858 13163.4 194.1 13213.4 194.1C13257.9 194.1 13304.3 189.156 13348.2 182.408C13401.3 174.233 13440.5 141.246 13490.3 127.025C13541.1 112.526 13608.5 25.1256 13662.6 61.1795" stroke="black" stroke-width="10" stroke-linecap="round"/>
</svg>
